<svg width="487" height="175" viewBox="0 0 487 175" fill="none" xmlns="http://www.w3.org/2000/svg">
<g clip-path="url(#clip0_88_13)">
<rect y="18" width="145" height="141" rx="35" fill="url(#paint0_linear_88_13)"/>
<rect x="49" y="55" width="108" height="60" rx="20" fill="#151515"/>
<circle cx="83" cy="85" r="10" fill="#DDDDDD"/>
<path d="M194.448 88C193.509 88 192.784 87.7653 192.272 87.296C191.803 86.784 191.568 86.0587 191.568 85.12V45.76C191.568 44.8213 191.803 44.1173 192.272 43.648C192.784 43.136 193.509 42.88 194.448 42.88H218.256C218.981 42.88 219.536 43.072 219.92 43.456C220.304 43.84 220.496 44.3733 220.496 45.056C220.496 45.7813 220.304 46.336 219.92 46.72C219.536 47.104 218.981 47.296 218.256 47.296H196.688V62.912H216.912C217.637 62.912 218.192 63.104 218.576 63.488C218.96 63.8293 219.152 64.3627 219.152 65.088C219.152 65.8133 218.96 66.368 218.576 66.752C218.192 67.136 217.637 67.328 216.912 67.328H196.688V83.584H218.256C218.981 83.584 219.536 83.776 219.92 84.16C220.304 84.544 220.496 85.0773 220.496 85.76C220.496 86.4853 220.304 87.04 219.92 87.424C219.536 87.808 218.981 88 218.256 88H194.448ZM227.805 88.448C227.079 88.448 226.482 88.256 226.013 87.872C225.586 87.488 225.33 87.0187 225.245 86.464C225.202 85.9093 225.415 85.3547 225.885 84.8L241.373 63.936V65.92L226.781 46.208C226.311 45.568 226.098 44.9707 226.141 44.416C226.183 43.8613 226.418 43.392 226.845 43.008C227.314 42.624 227.869 42.432 228.509 42.432C229.106 42.432 229.618 42.56 230.045 42.816C230.471 43.072 230.919 43.52 231.389 44.16L244.509 62.144H242.845L255.901 44.16C256.327 43.52 256.754 43.072 257.181 42.816C257.607 42.56 258.119 42.432 258.717 42.432C259.399 42.432 259.954 42.624 260.381 43.008C260.85 43.3493 261.106 43.8187 261.149 44.416C261.191 44.9707 260.978 45.568 260.509 46.208L245.917 65.92V63.936L261.405 84.8C261.831 85.3547 262.002 85.9093 261.917 86.464C261.874 87.0187 261.639 87.488 261.213 87.872C260.786 88.256 260.21 88.448 259.485 88.448C258.93 88.448 258.418 88.2987 257.949 88C257.522 87.744 257.074 87.3173 256.604 86.72L242.589 67.584H244.637L230.621 86.72C230.194 87.3173 229.746 87.744 229.277 88C228.807 88.2987 228.317 88.448 227.805 88.448ZM272.63 88.448C271.776 88.448 271.115 88.2133 270.646 87.744C270.219 87.232 270.006 86.5493 270.006 85.696V45.568C270.006 44.672 270.24 44.0107 270.71 43.584C271.179 43.1147 271.84 42.88 272.694 42.88H287.862C292.683 42.88 296.395 44.0747 298.998 46.464C301.6 48.8107 302.902 52.1387 302.902 56.448C302.902 60.7147 301.6 64.0427 298.998 66.432C296.395 68.8213 292.683 70.016 287.862 70.016H275.254V85.696C275.254 86.5493 275.04 87.232 274.614 87.744C274.187 88.2133 273.526 88.448 272.63 88.448ZM275.254 65.6H287.222C290.678 65.6 293.28 64.832 295.03 63.296C296.822 61.7173 297.718 59.4347 297.718 56.448C297.718 53.4187 296.822 51.136 295.03 49.6C293.28 48.0213 290.678 47.232 287.222 47.232H275.254V65.6ZM313.385 88C312.447 88 311.722 87.7653 311.21 87.296C310.74 86.784 310.506 86.0587 310.506 85.12V45.76C310.506 44.8213 310.74 44.1173 311.21 43.648C311.722 43.136 312.447 42.88 313.385 42.88H337.194C337.919 42.88 338.474 43.072 338.858 43.456C339.242 43.84 339.434 44.3733 339.434 45.056C339.434 45.7813 339.242 46.336 338.858 46.72C338.474 47.104 337.919 47.296 337.194 47.296H315.626V62.912H335.85C336.575 62.912 337.13 63.104 337.514 63.488C337.898 63.8293 338.09 64.3627 338.09 65.088C338.09 65.8133 337.898 66.368 337.514 66.752C337.13 67.136 336.575 67.328 335.85 67.328H315.626V83.584H337.194C337.919 83.584 338.474 83.776 338.858 84.16C339.242 84.544 339.434 85.0773 339.434 85.76C339.434 86.4853 339.242 87.04 338.858 87.424C338.474 87.808 337.919 88 337.194 88H313.385ZM350.314 88.448C349.503 88.448 348.885 88.2347 348.458 87.808C348.031 87.3387 347.818 86.6773 347.818 85.824V45.12C347.818 44.2667 348.031 43.6053 348.458 43.136C348.885 42.6667 349.439 42.432 350.122 42.432C350.805 42.432 351.295 42.56 351.594 42.816C351.935 43.0293 352.319 43.4347 352.746 44.032L380.65 81.216H379.114V44.992C379.114 44.1813 379.327 43.5627 379.754 43.136C380.181 42.6667 380.799 42.432 381.61 42.432C382.378 42.432 382.954 42.6667 383.338 43.136C383.765 43.5627 383.978 44.1813 383.978 44.992V85.888C383.978 86.6987 383.786 87.3387 383.402 87.808C383.061 88.2347 382.549 88.448 381.866 88.448C381.226 88.448 380.714 88.32 380.33 88.064C379.946 87.808 379.541 87.4027 379.114 86.848L351.274 49.664H352.746V85.824C352.746 86.6773 352.533 87.3387 352.106 87.808C351.679 88.2347 351.082 88.448 350.314 88.448ZM409.785 88.576C407.78 88.576 405.817 88.4053 403.897 88.064C401.977 87.7227 400.185 87.232 398.521 86.592C396.9 85.952 395.428 85.1413 394.105 84.16C393.593 83.776 393.23 83.3493 393.017 82.88C392.846 82.368 392.804 81.8773 392.889 81.408C393.017 80.896 393.23 80.4693 393.529 80.128C393.87 79.7867 394.276 79.5947 394.745 79.552C395.214 79.5093 395.726 79.6587 396.281 80C398.201 81.3653 400.249 82.368 402.425 83.008C404.601 83.6053 407.054 83.904 409.785 83.904C413.625 83.904 416.462 83.2 418.297 81.792C420.174 80.3413 421.113 78.4427 421.113 76.096C421.113 74.176 420.43 72.6827 419.065 71.616C417.742 70.5067 415.502 69.632 412.345 68.992L405.689 67.648C401.678 66.7947 398.67 65.408 396.665 63.488C394.702 61.5253 393.721 58.9227 393.721 55.68C393.721 53.6747 394.126 51.8613 394.937 50.24C395.748 48.576 396.878 47.168 398.329 46.016C399.78 44.8213 401.508 43.904 403.513 43.264C405.518 42.624 407.737 42.304 410.169 42.304C412.857 42.304 415.353 42.688 417.657 43.456C420.004 44.1813 422.116 45.2907 423.993 46.784C424.462 47.168 424.782 47.616 424.953 48.128C425.124 48.5973 425.145 49.0667 425.017 49.536C424.889 49.9627 424.654 50.3253 424.313 50.624C424.014 50.9227 423.609 51.0933 423.097 51.136C422.628 51.1787 422.094 51.008 421.497 50.624C419.79 49.344 418.02 48.4267 416.185 47.872C414.35 47.2747 412.324 46.976 410.105 46.976C407.844 46.976 405.881 47.3173 404.217 48C402.596 48.6827 401.316 49.6853 400.377 51.008C399.481 52.288 399.033 53.7813 399.033 55.488C399.033 57.536 399.652 59.1573 400.889 60.352C402.169 61.5467 404.238 62.4213 407.097 62.976L413.753 64.384C418.062 65.28 421.241 66.6453 423.289 68.48C425.38 70.272 426.425 72.7253 426.425 75.84C426.425 77.7173 426.041 79.4453 425.273 81.024C424.505 82.6027 423.396 83.968 421.945 85.12C420.494 86.2293 418.745 87.0827 416.697 87.68C414.649 88.2773 412.345 88.576 409.785 88.576ZM437.448 88C436.509 88 435.784 87.7653 435.272 87.296C434.803 86.784 434.568 86.0587 434.568 85.12V45.76C434.568 44.8213 434.803 44.1173 435.272 43.648C435.784 43.136 436.509 42.88 437.448 42.88H461.256C461.981 42.88 462.536 43.072 462.92 43.456C463.304 43.84 463.496 44.3733 463.496 45.056C463.496 45.7813 463.304 46.336 462.92 46.72C462.536 47.104 461.981 47.296 461.256 47.296H439.688V62.912H459.912C460.637 62.912 461.192 63.104 461.576 63.488C461.96 63.8293 462.152 64.3627 462.152 65.088C462.152 65.8133 461.96 66.368 461.576 66.752C461.192 67.136 460.637 67.328 459.912 67.328H439.688V83.584H461.256C461.981 83.584 462.536 83.776 462.92 84.16C463.304 84.544 463.496 85.0773 463.496 85.76C463.496 86.4853 463.304 87.04 462.92 87.424C462.536 87.808 461.981 88 461.256 88H437.448Z" fill="#969696"/>
<path d="M205.264 150.448C204.453 150.448 203.813 150.213 203.344 149.744C202.875 149.232 202.64 148.549 202.64 147.696V109.424H188.24C187.472 109.424 186.875 109.211 186.448 108.784C186.021 108.357 185.808 107.803 185.808 107.12C185.808 106.395 186.021 105.84 186.448 105.456C186.875 105.072 187.472 104.88 188.24 104.88H222.352C223.12 104.88 223.717 105.072 224.144 105.456C224.571 105.84 224.784 106.395 224.784 107.12C224.784 107.845 224.571 108.421 224.144 108.848C223.717 109.232 223.12 109.424 222.352 109.424H207.952V147.696C207.952 148.549 207.717 149.232 207.248 149.744C206.821 150.213 206.16 150.448 205.264 150.448ZM232.692 150.448C231.839 150.448 231.177 150.213 230.708 149.744C230.281 149.232 230.068 148.549 230.068 147.696V107.568C230.068 106.672 230.303 106.011 230.772 105.584C231.241 105.115 231.903 104.88 232.756 104.88H247.924C252.745 104.88 256.457 106.011 259.06 108.272C261.663 110.533 262.964 113.755 262.964 117.936C262.964 120.581 262.367 122.885 261.172 124.848C260.02 126.768 258.313 128.24 256.052 129.264C253.791 130.245 251.081 130.736 247.924 130.736L248.564 129.904H249.844C251.508 129.904 252.959 130.331 254.196 131.184C255.433 132.037 256.564 133.403 257.588 135.28L263.732 146.736C264.073 147.333 264.223 147.931 264.18 148.528C264.18 149.083 263.988 149.552 263.604 149.936C263.22 150.277 262.665 150.448 261.94 150.448C261.215 150.448 260.617 150.277 260.148 149.936C259.679 149.595 259.273 149.104 258.932 148.464L251.956 135.536C250.975 133.701 249.844 132.485 248.564 131.888C247.284 131.248 245.599 130.928 243.508 130.928H235.316V147.696C235.316 148.549 235.103 149.232 234.676 149.744C234.249 150.213 233.588 150.448 232.692 150.448ZM235.316 126.768H247.156C250.655 126.768 253.3 126.043 255.092 124.592C256.884 123.099 257.78 120.88 257.78 117.936C257.78 115.077 256.884 112.923 255.092 111.472C253.3 109.979 250.655 109.232 247.156 109.232H235.316V126.768ZM271.233 150.448C270.55 150.448 269.996 150.299 269.569 150C269.185 149.659 268.95 149.232 268.865 148.72C268.822 148.165 268.95 147.547 269.249 146.864L286.849 106.8C287.233 105.947 287.681 105.349 288.193 105.008C288.748 104.624 289.345 104.432 289.985 104.432C290.625 104.432 291.201 104.624 291.713 105.008C292.268 105.349 292.716 105.947 293.057 106.8L310.721 146.864C311.062 147.547 311.19 148.165 311.105 148.72C311.062 149.275 310.849 149.701 310.465 150C310.081 150.299 309.548 150.448 308.865 150.448C308.097 150.448 307.478 150.256 307.009 149.872C306.54 149.445 306.156 148.848 305.857 148.08L301.121 137.136L303.681 138.48H276.161L278.785 137.136L274.113 148.08C273.729 148.891 273.324 149.488 272.897 149.872C272.47 150.256 271.916 150.448 271.233 150.448ZM289.921 111.024L279.617 135.28L278.081 134.064H301.761L300.353 135.28L290.049 111.024H289.921ZM337.588 150.576C333.151 150.576 329.353 149.637 326.196 147.76C323.039 145.883 320.607 143.216 318.9 139.76C317.236 136.304 316.404 132.187 316.404 127.408C316.404 123.824 316.873 120.624 317.812 117.808C318.793 114.949 320.18 112.539 321.972 110.576C323.807 108.571 326.047 107.035 328.692 105.968C331.337 104.859 334.303 104.304 337.588 104.304C340.233 104.304 342.751 104.688 345.14 105.456C347.529 106.181 349.599 107.269 351.348 108.72C351.903 109.147 352.265 109.637 352.436 110.192C352.649 110.704 352.671 111.216 352.5 111.728C352.372 112.197 352.116 112.603 351.732 112.944C351.391 113.243 350.964 113.392 350.452 113.392C349.94 113.392 349.364 113.179 348.724 112.752C347.188 111.515 345.503 110.597 343.668 110C341.833 109.403 339.849 109.104 337.716 109.104C334.345 109.104 331.487 109.829 329.14 111.28C326.793 112.688 325.023 114.757 323.828 117.488C322.633 120.219 322.036 123.525 322.036 127.408C322.036 131.291 322.633 134.619 323.828 137.392C325.023 140.123 326.793 142.213 329.14 143.664C331.487 145.072 334.345 145.776 337.716 145.776C339.807 145.776 341.791 145.477 343.668 144.88C345.545 144.24 347.273 143.301 348.852 142.064C349.492 141.637 350.068 141.445 350.58 141.488C351.092 141.488 351.519 141.637 351.86 141.936C352.201 142.235 352.436 142.619 352.564 143.088C352.735 143.557 352.735 144.048 352.564 144.56C352.436 145.072 352.116 145.52 351.604 145.904C349.812 147.44 347.7 148.613 345.268 149.424C342.879 150.192 340.319 150.576 337.588 150.576ZM363.755 150.448C362.901 150.448 362.24 150.213 361.771 149.744C361.344 149.232 361.131 148.549 361.131 147.696V107.12C361.131 106.224 361.344 105.563 361.771 105.136C362.24 104.667 362.901 104.432 363.755 104.432C364.608 104.432 365.248 104.667 365.675 105.136C366.144 105.563 366.379 106.224 366.379 107.12V125.36H366.507L387.371 105.904C387.883 105.392 388.395 105.029 388.907 104.816C389.419 104.56 389.973 104.432 390.571 104.432C391.381 104.432 391.957 104.624 392.299 105.008C392.683 105.392 392.832 105.861 392.747 106.416C392.661 106.971 392.363 107.504 391.851 108.016L370.027 128.24L370.091 125.424L392.875 146.48C393.515 147.077 393.856 147.696 393.899 148.336C393.941 148.933 393.749 149.445 393.323 149.872C392.939 150.256 392.341 150.448 391.531 150.448C390.891 150.448 390.336 150.299 389.867 150C389.44 149.744 388.949 149.339 388.395 148.784L366.507 128.752H366.379V147.696C366.379 148.549 366.165 149.232 365.739 149.744C365.312 150.213 364.651 150.448 363.755 150.448ZM404.01 150C403.072 150 402.347 149.765 401.835 149.296C401.365 148.784 401.131 148.059 401.131 147.12V107.76C401.131 106.821 401.365 106.117 401.835 105.648C402.347 105.136 403.072 104.88 404.01 104.88H427.819C428.544 104.88 429.099 105.072 429.483 105.456C429.867 105.84 430.059 106.373 430.059 107.056C430.059 107.781 429.867 108.336 429.483 108.72C429.099 109.104 428.544 109.296 427.819 109.296H406.251V124.912H426.475C427.2 124.912 427.755 125.104 428.139 125.488C428.523 125.829 428.715 126.363 428.715 127.088C428.715 127.813 428.523 128.368 428.139 128.752C427.755 129.136 427.2 129.328 426.475 129.328H406.251V145.584H427.819C428.544 145.584 429.099 145.776 429.483 146.16C429.867 146.544 430.059 147.077 430.059 147.76C430.059 148.485 429.867 149.04 429.483 149.424C429.099 149.808 428.544 150 427.819 150H404.01ZM441.067 150.448C440.214 150.448 439.552 150.213 439.083 149.744C438.656 149.232 438.443 148.549 438.443 147.696V107.568C438.443 106.672 438.678 106.011 439.147 105.584C439.616 105.115 440.278 104.88 441.131 104.88H456.299C461.12 104.88 464.832 106.011 467.435 108.272C470.038 110.533 471.339 113.755 471.339 117.936C471.339 120.581 470.742 122.885 469.547 124.848C468.395 126.768 466.688 128.24 464.427 129.264C462.166 130.245 459.456 130.736 456.299 130.736L456.939 129.904H458.219C459.883 129.904 461.334 130.331 462.571 131.184C463.808 132.037 464.939 133.403 465.963 135.28L472.107 146.736C472.448 147.333 472.598 147.931 472.555 148.528C472.555 149.083 472.363 149.552 471.979 149.936C471.595 150.277 471.04 150.448 470.315 150.448C469.59 150.448 468.992 150.277 468.523 149.936C468.054 149.595 467.648 149.104 467.307 148.464L460.331 135.536C459.35 133.701 458.219 132.485 456.939 131.888C455.659 131.248 453.974 130.928 451.883 130.928H443.691V147.696C443.691 148.549 443.478 149.232 443.051 149.744C442.624 150.213 441.963 150.448 441.067 150.448ZM443.691 126.768H455.531C459.03 126.768 461.675 126.043 463.467 124.592C465.259 123.099 466.155 120.88 466.155 117.936C466.155 115.077 465.259 112.923 463.467 111.472C461.675 109.979 459.03 109.232 455.531 109.232H443.691V126.768Z" fill="#969696"/>
</g>
<defs>
<linearGradient id="paint0_linear_88_13" x1="0" y1="88.5" x2="223.077" y2="88.5" gradientUnits="userSpaceOnUse">
<stop stop-color="#020055"/>
<stop offset="1" stop-color="#009FFD"/>
</linearGradient>
<clipPath id="clip0_88_13">
<rect width="487" height="175" fill="white"/>
</clipPath>
</defs>
</svg>
